<svg width="16" height="16" viewBox="0 0 16 16" fill="none" xmlns="http://www.w3.org/2000/svg">
<g clip-path="url(#clip0_420_6)">
<rect width="16" height="16" fill="white"/>
<rect x="0.5" y="0.5" width="15" height="15" rx="3.5" fill="#5B21B6" stroke="#7C3AED"/>
<path d="M6.74432 8.26705V12H4.66051V3.27273H6.67614V6.65625H6.74858C6.89631 6.25284 7.13778 5.9375 7.47301 5.71023C7.81108 5.48295 8.22443 5.36932 8.71307 5.36932C9.1733 5.36932 9.57386 5.47159 9.91477 5.67614C10.2557 5.87784 10.5199 6.16335 10.7074 6.53267C10.8977 6.90199 10.9915 7.33381 10.9886 7.82812V12H8.90483V8.23722C8.90767 7.87358 8.81676 7.58949 8.6321 7.38494C8.44744 7.1804 8.1875 7.07812 7.85227 7.07812C7.63352 7.07812 7.44034 7.12642 7.27273 7.22301C7.10795 7.31676 6.97869 7.4517 6.88494 7.62784C6.79403 7.80398 6.74716 8.01705 6.74432 8.26705Z" fill="white"/>
</g>
<defs>
<clipPath id="clip0_420_6">
<rect width="16" height="16" fill="white"/>
</clipPath>
</defs>
</svg>
